<svg width="513" height="512" viewBox="0 0 513 512" fill="none" xmlns="http://www.w3.org/2000/svg">
<path d="M308.8 508.5C306.3 508.6 304.7 508.8 303.1 508.8C268.9 508.8 234.8 508.7 200.6 508.9C195.8 508.9 194.5 507.6 194.5 502.8C194.6 423.2 194.6 343.5 194.6 263.9C194.6 261.8 194.6 259.7 194.6 257C176 257 157.9 257 139.5 257C139.5 228.6 139.5 200.7 139.5 172C141.4 172 143.2 172 144.9 172C159.9 172 174.9 171.9 189.9 172.1C193.7 172.1 194.7 171 194.7 167.3C194.5 145 194.5 122.6 194.7 100.3C194.8 84.6998 197.3 69.4998 204.5 55.3998C214.8 35.4998 231.1 22.5998 251.7 14.5998C268.5 7.99976 286.2 5.59976 304 5.29976C333 4.89976 362 5.09976 391 4.99976C393.7 4.99976 395.9 4.89976 395.9 8.69976C395.8 36.1998 395.8 63.6998 395.8 91.1998C395.8 91.4998 395.7 91.7998 395.3 93.0998C393.6 93.0998 391.7 93.0998 389.8 93.0998C371.8 93.0998 353.8 92.9998 335.8 93.0998C325.4 93.0998 317 97.2998 311.7 106.4C310.1 109.1 309.1 112.6 309.1 115.8C308.8 132.8 309.1 149.8 308.9 166.8C308.9 170.8 310.1 171.9 314 171.9C339 171.7 364 171.8 389 171.8C391 171.8 392.9 171.8 396.3 171.8C392.8 200.4 389.4 228.4 385.9 256.7C359.9 256.7 334.6 256.7 308.8 256.7C308.8 340.8 308.8 424.4 308.8 508.5Z" fill="white"/>
</svg>
