<svg width="513" height="512" viewBox="0 0 513 512" fill="none" xmlns="http://www.w3.org/2000/svg">
<path d="M505.5 257C505.5 291.8 504.8 326.7 505.7 361.5C507.2 423.1 468.5 470.7 419.2 491.9C399.4 500.4 378.6 504.9 357.1 504.9C289.8 505 222.4 505.9 155.1 504.6C104.4 503.6 62.6996 482.4 32.7996 440.6C17.0996 418.6 9.59961 393.6 9.59961 366.5C9.59961 294.8 9.59961 223.2 9.59961 151.5C9.59961 93.0002 38.0996 52.1002 88.6996 25.5002C110.7 14.0002 134.6 9.10024 159.5 9.00024C224.8 9.00024 290.2 8.60024 355.5 9.20024C406.2 9.60024 448.5 29.0002 479.7 69.8002C497.1 92.6002 505.5 118.8 505.5 147.6C505.5 184 505.5 220.5 505.5 257ZM46.4996 257C46.4996 293.7 46.4996 330.3 46.4996 367C46.4996 383.4 50.2996 398.8 58.7996 412.7C81.0996 449.2 114.8 467 156.6 467.7C223.7 468.7 290.9 468.1 358.1 467.9C374.6 467.9 390.6 464.5 405.5 457.4C446.1 438 468.8 407.1 468.6 360.7C468.2 289.7 468.5 218.7 468.5 147.7C468.5 127.6 462.8 109.2 450.9 93.0002C427.9 61.9002 396.1 46.6002 358.1 46.2002C291.1 45.4002 224.1 45.9002 157.1 46.0002C142.8 46.0002 129 48.9002 115.6 53.9002C78.7996 67.6002 44.5996 102.3 46.1996 153.4C47.3996 188 46.4996 222.5 46.4996 257Z" fill="white"/>
<path d="M258.099 363C193.599 363 141.599 311.6 141.499 247.6C141.399 184.6 193.799 133 257.899 133C322.199 132.9 374.399 184.4 374.499 247.9C374.499 311.3 322.399 362.9 258.099 363ZM258.099 326C301.999 326 337.599 290.9 337.499 247.7C337.399 204.9 301.799 169.9 258.099 169.9C214.199 169.9 178.399 204.8 178.399 247.9C178.499 291.1 214.199 326.1 258.099 326Z" fill="white"/>
<path d="M387.999 98C401.499 98 412.499 109.5 412.499 123.6C412.399 137.7 401.299 149.1 387.799 149C374.499 148.9 363.599 137.5 363.599 123.7C363.499 109.6 374.499 98 387.999 98Z" fill="white"/>
</svg>
