<svg width="613" height="612" viewBox="0 0 613 612" fill="none" xmlns="http://www.w3.org/2000/svg">
<g clip-path="url(#clip0_93_171)">
<path d="M490.1 81.6001H122.9C55.417 81.6001 0.5 136.516 0.5 204V408C0.5 475.482 55.417 530.4 122.9 530.4H490.1C557.583 530.4 612.5 475.482 612.5 408V204C612.5 136.516 557.583 81.6001 490.1 81.6001ZM585.3 408C585.3 460.496 542.596 503.199 490.1 503.199H122.9C70.404 503.199 27.7 460.496 27.7 408V204C27.7 151.504 70.404 108.8 122.9 108.8H490.1C542.596 108.8 585.3 151.504 585.3 204V408ZM218.1 421.068L417.408 306.013L218.1 190.93V421.068ZM245.3 238.041L363.008 306.014L245.3 373.959V238.041Z" fill="white"/>
</g>
<defs>
<clipPath id="clip0_93_171">
<rect width="612" height="612" fill="white" transform="translate(0.5)"/>
</clipPath>
</defs>
</svg>
